<?xml version="1.0" standalone="no"?>
<!DOCTYPE svg PUBLIC "-//W3C//DTD SVG 20010904//EN"
 "http://www.w3.org/TR/2001/REC-SVG-20010904/DTD/svg10.dtd">
<svg version="1.0" xmlns="http://www.w3.org/2000/svg"
 width="500.000000pt" height="500.000000pt" viewBox="0 0 500.000000 500.000000"
 preserveAspectRatio="xMidYMid meet">

<g transform="translate(0.000000,500.000000) scale(0.100000,-0.100000)"
fill="#000000" stroke="none">
<path d="M610 2282 c0 -4 16 -6 35 -4 19 2 35 6 35 8 0 2 -16 4 -35 4 -19 0
-35 -4 -35 -8z"/>
<path d="M1180 1597 c0 -7 6 -19 13 -26 10 -11 10 -13 0 -7 -13 7 -16 -26 -18
-168 0 -41 19 -61 27 -28 5 16 15 18 89 16 l84 -2 -7 91 c-3 51 -7 92 -7 92
-1 1 -20 1 -43 0 -27 0 -43 5 -46 14 -3 9 0 11 9 6 11 -6 11 -5 2 5 -7 7 -27
11 -51 8 -22 -2 -38 0 -36 4 3 5 0 8 -5 8 -6 0 -11 -6 -11 -13z m73 -14 c-7
-2 -19 -2 -25 0 -7 3 -2 5 12 5 14 0 19 -2 13 -5z"/>
<path d="M1305 1591 c-3 -5 -1 -12 5 -16 5 -3 10 1 10 9 0 18 -6 21 -15 7z"/>
<path d="M1540 1550 c0 -5 5 -10 11 -10 5 0 7 5 4 10 -3 6 -8 10 -11 10 -2 0
-4 -4 -4 -10z"/>
<path d="M1480 1465 c0 -41 2 -75 4 -75 2 0 11 -3 20 -6 13 -5 16 3 16 47 0
66 -8 96 -26 103 -11 4 -14 -9 -14 -69z"/>
<path d="M1856 1463 c-6 -14 -5 -15 5 -6 7 7 10 15 7 18 -3 3 -9 -2 -12 -12z"/>
<path d="M3640 1470 c-13 -8 -12 -10 3 -10 9 0 17 5 17 10 0 12 -1 12 -20 0z"/>
<path d="M3756 1465 c-9 -26 -7 -32 5 -12 6 10 9 21 6 23 -2 3 -7 -2 -11 -11z"/>
<path d="M1931 1444 c0 -11 3 -14 6 -6 3 7 2 16 -1 19 -3 4 -6 -2 -5 -13z"/>
<path d="M3720 1450 c0 -5 -7 -10 -15 -10 -8 0 -15 -8 -16 -17 -1 -10 -2 -30
-3 -45 -2 -23 1 -28 18 -28 12 0 31 -3 44 -6 20 -6 22 -3 22 35 0 28 -6 47
-20 61 -22 22 -30 25 -30 10z"/>
<path d="M1833 1415 c0 -22 2 -30 4 -17 2 12 2 30 0 40 -3 9 -5 -1 -4 -23z"/>
<path d="M3417 1443 c-4 -3 -7 -16 -8 -27 -1 -18 -2 -18 -9 4 -6 22 -8 23 -15
7 -4 -10 -2 -24 6 -34 8 -9 13 -24 11 -35 -2 -11 3 -18 11 -18 12 0 15 13 14
55 -1 30 -2 55 -3 55 0 0 -4 -3 -7 -7z"/>
<path d="M3280 1410 c0 -27 3 -30 30 -30 17 0 30 5 30 11 0 5 4 8 9 5 5 -3 12
1 15 10 3 8 2 12 -4 9 -6 -3 -10 -1 -10 5 0 8 -6 8 -21 0 -11 -7 -23 -9 -27
-6 -3 3 0 6 7 6 7 0 9 5 6 10 -14 22 -35 10 -35 -20z"/>
</g>
</svg>
